<?xml version="1.0" encoding="UTF-8" standalone="no"?>
<svg width="484px" height="533px" viewBox="0 0 484 533" version="1.1" xmlns="http://www.w3.org/2000/svg" xmlns:xlink="http://www.w3.org/1999/xlink" xmlns:sketch="http://www.bohemiancoding.com/sketch/ns">
    <!-- Generator: Sketch 3.3.2 (12043) - http://www.bohemiancoding.com/sketch -->
    <title>logo2</title>
    <desc>Created with Sketch.</desc>
    <defs></defs>
    <g id="Page-1" stroke="none" stroke-width="1" fill="none" fill-rule="evenodd" sketch:type="MSPage">
        <g id="logo2" sketch:type="MSLayerGroup" transform="translate(-1.000000, 0.000000)" fill="#000000">
            <g id="Page-1" sketch:type="MSShapeGroup">
                <path d="M402.384013,525.001785 L320.358117,438.711599 C273.170355,501.798129 220.925868,532.973282 164.310712,532.973282 C117.859869,532.973282 79.3879876,517.741122 48.183588,488.013024 C16.9791882,457.548705 1.73274457,421.296163 1.73274457,378.519179 C1.73274457,309.644429 43.1014399,271.919446 121.493602,223.354241 C83.7586393,184.918424 64.8784628,148.665883 64.8784628,115.307452 C64.8784628,81.2381875 77.2280763,53.6679775 101.165011,32.6475965 C125.127335,10.8656076 154.88332,0 188.984549,0 C223.085779,0 252.130268,10.8656076 276.092592,32.6222097 C300.766428,54.3788117 313.116057,81.9236346 313.116057,116.018286 C313.116057,160.242324 281.17474,200.861418 216.580623,237.824793 L316.012888,345.160747 L368.282799,261.764671 L438.670578,261.764671 L357.381585,389.384786 L484.409923,524.9764 L402.384013,525.001785 L402.384013,525.001785 Z M161.64259,263.795627 C93.0081544,297.30638 58.70364,338.458597 58.70364,387.963118 C58.70364,412.334575 69.3761634,433.6596 90.7466009,452.725186 C112.091632,471.765386 135.723622,480.904683 160.880264,480.904683 C178.413684,480.904683 195.947104,475.573426 213.505931,465.672523 C231.039334,455.010009 243.261915,445.109107 251.647463,435.96981 C260.03301,426.068907 271.467843,413.121571 284.452733,395.604585 L161.64259,263.795627 L161.64259,263.795627 Z M174.525838,197.891146 C195.870868,187.990243 207.331108,181.135771 226.389178,166.665218 C245.447233,151.433059 256.119757,133.154466 256.119757,111.804056 C256.119757,75.246871 227.151504,50.0884199 188.247647,50.0884199 C149.343789,50.0884199 121.137846,76.7700869 121.137846,109.519231 C121.137846,133.890688 138.696672,163.5934 174.525838,197.891146 L174.525838,197.891146 L174.525838,197.891146 Z" id="Shape"></path>
            </g>
        </g>
    </g>
</svg>